<svg xmlns="http://www.w3.org/2000/svg" xmlns:xlink="http://www.w3.org/1999/xlink" width="3780" zoomAndPan="magnify" viewBox="0 0 2835 1417.499962" height="1890" preserveAspectRatio="xMidYMid meet" version="1.0"><defs><g/><clipPath id="f7e8df3204"><path d="M 0.5 410 L 2609 410 L 2609 1040 L 0.5 1040 Z M 0.5 410 " clip-rule="nonzero"/></clipPath><clipPath id="f0c622cbe2"><path d="M 0.5 0.253906 L 641.605469 0.253906 L 641.605469 597 L 0.5 597 Z M 0.5 0.253906 " clip-rule="nonzero"/></clipPath><clipPath id="f71e225214"><rect x="0" width="2609" y="0" height="630"/></clipPath></defs><g clip-path="url(#f7e8df3204)"><g transform="matrix(1, 0, 0, 1, 0, 410)"><g clip-path="url(#f71e225214)"><g clip-path="url(#f0c622cbe2)"><path fill="#094f65" d="M 181.246094 0.9375 C 146.546875 0.9375 118.105469 29.417969 118.105469 64.167969 L 118.105469 111.511719 L 44.488281 111.511719 C 20.097656 111.511719 0.5 131.136719 0.5 155.5625 L 0.5 552.007812 C 0.5 576.429688 20.097656 596.058594 44.488281 596.058594 L 597.800781 596.058594 C 622.191406 596.058594 641.792969 576.429688 641.792969 552.007812 L 641.792969 155.5625 C 641.792969 131.136719 622.191406 111.511719 597.800781 111.511719 L 524.1875 111.511719 L 524.1875 64.167969 C 524.1875 29.417969 495.746094 0.9375 461.042969 0.9375 Z M 181.246094 39.292969 L 461.042969 39.292969 C 475.125 39.292969 485.882812 50.066406 485.882812 64.167969 L 485.882812 111.511719 L 156.410156 111.511719 L 156.410156 64.167969 C 156.410156 50.066406 167.164062 39.292969 181.246094 39.292969 Z M 93.566406 139.980469 L 117.804688 139.980469 L 117.804688 567.589844 L 93.566406 567.589844 Z M 524.484375 139.980469 L 548.722656 139.980469 L 548.722656 567.589844 L 524.484375 567.589844 Z M 286.285156 229.277344 L 356.605469 229.277344 C 369.101562 229.277344 378.453125 239.535156 378.453125 252.050781 L 378.453125 295.5 L 422.140625 295.5 C 434.636719 295.5 444.585938 305.761719 444.585938 318.277344 L 444.585938 388.394531 C 444.585938 400.910156 434.640625 411.167969 422.140625 411.167969 L 378.453125 411.167969 L 378.453125 454.617188 C 378.453125 467.132812 369.101562 476.792969 356.605469 476.792969 L 286.285156 476.792969 C 273.785156 476.792969 263.839844 467.132812 263.839844 454.617188 L 263.839844 411.167969 L 220.148438 411.167969 C 207.652344 411.167969 197.707031 400.910156 197.707031 388.394531 L 197.707031 318.277344 C 197.707031 305.761719 207.652344 295.5 220.148438 295.5 L 263.839844 295.5 L 263.839844 252.050781 C 263.839844 239.535156 273.785156 229.277344 286.285156 229.277344 Z M 286.285156 229.277344 " fill-opacity="1" fill-rule="nonzero"/></g><g fill="#1b7895" fill-opacity="1"><g transform="translate(687.029964, 418.09029)"><g><path d="M 274.46875 0 L 260.046875 -180.890625 L 258.1875 -180.890625 L 195.6875 -1.84375 L 154.25 -1.84375 L 91.734375 -180.890625 L 89.890625 -180.890625 L 75.453125 0 L 5.921875 0 L 33.296875 -305.171875 L 107.265625 -305.171875 L 174.96875 -129.09375 L 242.65625 -305.171875 L 316.640625 -305.171875 L 344.015625 0 Z M 274.46875 0 "/></g></g></g><g fill="#1b7895" fill-opacity="1"><g transform="translate(1036.960249, 418.09029)"><g><path d="M 214.171875 -85.8125 L 76.578125 -85.8125 C 76.578125 -72.5 80.890625 -62.632812 89.515625 -56.21875 C 98.148438 -49.8125 107.519531 -46.609375 117.625 -46.609375 C 128.226562 -46.609375 136.613281 -48.023438 142.78125 -50.859375 C 148.945312 -53.691406 155.976562 -59.300781 163.875 -67.6875 L 211.21875 -44.015625 C 191.488281 -10.972656 158.691406 5.546875 112.828125 5.546875 C 84.210938 5.546875 59.671875 -4.253906 39.203125 -23.859375 C 18.742188 -43.460938 8.515625 -67.070312 8.515625 -94.6875 C 8.515625 -122.3125 18.742188 -145.988281 39.203125 -165.71875 C 59.671875 -185.445312 84.210938 -195.3125 112.828125 -195.3125 C 142.910156 -195.3125 167.382812 -186.617188 186.25 -169.234375 C 205.113281 -151.847656 214.546875 -127.003906 214.546875 -94.703125 C 214.546875 -90.253906 214.421875 -87.289062 214.171875 -85.8125 Z M 78.421875 -122.0625 L 150.546875 -122.0625 C 149.066406 -131.925781 145.179688 -139.507812 138.890625 -144.8125 C 132.609375 -150.113281 124.535156 -152.765625 114.671875 -152.765625 C 103.816406 -152.765625 95.179688 -149.925781 88.765625 -144.25 C 82.359375 -138.582031 78.910156 -131.1875 78.421875 -122.0625 Z M 78.421875 -122.0625 "/></g></g></g><g fill="#1b7895" fill-opacity="1"><g transform="translate(1260.013058, 418.09029)"><g><path d="M 35.140625 -23.484375 C 17.390625 -42.847656 8.515625 -66.582031 8.515625 -94.6875 C 8.515625 -122.800781 17.390625 -146.597656 35.140625 -166.078125 C 52.898438 -185.566406 75.460938 -195.3125 102.828125 -195.3125 C 127.984375 -195.3125 148.703125 -187.421875 164.984375 -171.640625 L 164.984375 -318.125 L 230.453125 -318.125 L 230.453125 0 L 165.71875 0 L 165.71875 -21.453125 L 164.984375 -21.453125 C 148.703125 -3.453125 127.984375 5.546875 102.828125 5.546875 C 75.460938 5.546875 52.898438 -4.128906 35.140625 -23.484375 Z M 90.8125 -126.875 C 82.300781 -118.488281 78.046875 -107.757812 78.046875 -94.6875 C 78.046875 -81.625 82.113281 -70.960938 90.25 -62.703125 C 98.394531 -54.441406 109.125 -50.3125 122.4375 -50.3125 C 135.257812 -50.3125 145.800781 -54.5 154.0625 -62.875 C 162.320312 -71.257812 166.453125 -81.867188 166.453125 -94.703125 C 166.453125 -107.765625 162.195312 -118.488281 153.6875 -126.875 C 145.1875 -135.257812 134.769531 -139.453125 122.4375 -139.453125 C 109.863281 -139.453125 99.320312 -135.257812 90.8125 -126.875 Z M 90.8125 -126.875 "/></g></g></g><g fill="#1b7895" fill-opacity="1"><g transform="translate(1512.658239, 418.09029)"><g><path d="M 28.484375 -295.546875 C 36.128906 -303.191406 45.253906 -307.015625 55.859375 -307.015625 C 66.460938 -307.015625 75.585938 -303.191406 83.234375 -295.546875 C 90.878906 -287.910156 94.703125 -278.789062 94.703125 -268.1875 C 94.703125 -257.582031 90.878906 -248.457031 83.234375 -240.8125 C 75.585938 -233.164062 66.460938 -229.34375 55.859375 -229.34375 C 45.253906 -229.34375 36.128906 -233.164062 28.484375 -240.8125 C 20.835938 -248.457031 17.015625 -257.582031 17.015625 -268.1875 C 17.015625 -278.789062 20.835938 -287.910156 28.484375 -295.546875 Z M 22.1875 -189.765625 L 22.1875 0 L 87.671875 0 L 87.671875 -189.765625 Z M 22.1875 -189.765625 "/></g></g></g><g fill="#1b7895" fill-opacity="1"><g transform="translate(1624.369709, 418.09029)"><g><path d="M 22.1875 -305.171875 L 116.890625 -305.171875 C 145.492188 -305.171875 168.300781 -299.066406 185.3125 -286.859375 C 202.332031 -274.648438 210.84375 -254.863281 210.84375 -227.5 C 210.84375 -196.914062 198.144531 -175.085938 172.75 -162.015625 C 216.144531 -154.367188 237.84375 -128.722656 237.84375 -85.078125 C 237.84375 -59.429688 228.960938 -38.835938 211.203125 -23.296875 C 193.453125 -7.765625 169.039062 0 137.96875 0 L 22.1875 0 Z M 91.734375 -185.6875 L 97.28125 -185.6875 C 112.820312 -185.6875 124.414062 -188.398438 132.0625 -193.828125 C 139.707031 -199.253906 143.53125 -208.132812 143.53125 -220.46875 C 143.53125 -241.175781 128.113281 -251.53125 97.28125 -251.53125 L 91.734375 -251.53125 Z M 91.734375 -53.640625 L 113.5625 -53.640625 C 147.59375 -53.640625 164.609375 -64.984375 164.609375 -87.671875 C 164.609375 -101.234375 160.351562 -110.972656 151.84375 -116.890625 C 143.332031 -122.804688 130.570312 -125.765625 113.5625 -125.765625 L 91.734375 -125.765625 Z M 91.734375 -53.640625 "/></g></g></g><g fill="#1b7895" fill-opacity="1"><g transform="translate(1870.726514, 418.09029)"><g><path d="M 40.140625 -22.5625 C 19.054688 -41.300781 8.515625 -65.34375 8.515625 -94.6875 C 8.515625 -124.039062 19.484375 -148.148438 41.421875 -167.015625 C 63.367188 -185.878906 90.5 -195.3125 122.8125 -195.3125 C 154.625 -195.3125 181.441406 -185.816406 203.265625 -166.828125 C 225.085938 -147.835938 236 -123.789062 236 -94.6875 C 236 -65.59375 225.332031 -41.613281 204 -22.75 C 182.664062 -3.882812 155.601562 5.546875 122.8125 5.546875 C 88.78125 5.546875 61.222656 -3.820312 40.140625 -22.5625 Z M 90.8125 -126.875 C 82.300781 -118.488281 78.046875 -107.757812 78.046875 -94.6875 C 78.046875 -81.625 82.113281 -70.960938 90.25 -62.703125 C 98.394531 -54.441406 109.125 -50.3125 122.4375 -50.3125 C 135.257812 -50.3125 145.800781 -54.5 154.0625 -62.875 C 162.320312 -71.257812 166.453125 -81.867188 166.453125 -94.703125 C 166.453125 -107.765625 162.195312 -118.488281 153.6875 -126.875 C 145.1875 -135.257812 134.769531 -139.453125 122.4375 -139.453125 C 109.863281 -139.453125 99.320312 -135.257812 90.8125 -126.875 Z M 90.8125 -126.875 "/></g></g></g><g fill="#1b7895" fill-opacity="1"><g transform="translate(2115.23382, 418.09029)"><g><path d="M 40.140625 -22.5625 C 19.054688 -41.300781 8.515625 -65.34375 8.515625 -94.6875 C 8.515625 -124.039062 19.484375 -148.148438 41.421875 -167.015625 C 63.367188 -185.878906 90.5 -195.3125 122.8125 -195.3125 C 154.625 -195.3125 181.441406 -185.816406 203.265625 -166.828125 C 225.085938 -147.835938 236 -123.789062 236 -94.6875 C 236 -65.59375 225.332031 -41.613281 204 -22.75 C 182.664062 -3.882812 155.601562 5.546875 122.8125 5.546875 C 88.78125 5.546875 61.222656 -3.820312 40.140625 -22.5625 Z M 90.8125 -126.875 C 82.300781 -118.488281 78.046875 -107.757812 78.046875 -94.6875 C 78.046875 -81.625 82.113281 -70.960938 90.25 -62.703125 C 98.394531 -54.441406 109.125 -50.3125 122.4375 -50.3125 C 135.257812 -50.3125 145.800781 -54.5 154.0625 -62.875 C 162.320312 -71.257812 166.453125 -81.867188 166.453125 -94.703125 C 166.453125 -107.765625 162.195312 -118.488281 153.6875 -126.875 C 145.1875 -135.257812 134.769531 -139.453125 122.4375 -139.453125 C 109.863281 -139.453125 99.320312 -135.257812 90.8125 -126.875 Z M 90.8125 -126.875 "/></g></g></g><g fill="#1b7895" fill-opacity="1"><g transform="translate(2359.741037, 418.09029)"><g><path d="M 238.953125 -189.765625 L 148.703125 -99.140625 L 247.84375 0 L 163.5 0 L 87.671875 -75.828125 L 87.671875 0 L 22.1875 0 L 22.1875 -318.125 L 87.671875 -318.125 L 87.671875 -123.546875 L 153.875 -189.765625 Z M 238.953125 -189.765625 "/></g></g></g><g fill="#7b7b7b" fill-opacity="1"><g transform="translate(687.029964, 583.586841)"><g><path d="M 64.6875 -16.078125 L 30.71875 -16.078125 L 25.28125 0 L 2.078125 0 L 35 -91 L 60.671875 -91 L 93.59375 0 L 70.125 0 Z M 58.984375 -33.1875 L 47.703125 -66.5 L 36.546875 -33.1875 Z M 58.984375 -33.1875 "/></g></g></g><g fill="#7b7b7b" fill-opacity="1"><g transform="translate(840.88829, 583.586841)"><g><path d="M 3.625 -36.296875 C 3.625 -43.722656 5.03125 -50.242188 7.84375 -55.859375 C 10.65625 -61.484375 14.476562 -65.804688 19.3125 -68.828125 C 24.15625 -71.859375 29.554688 -73.375 35.515625 -73.375 C 40.265625 -73.375 44.601562 -72.378906 48.53125 -70.390625 C 52.46875 -68.398438 55.5625 -65.71875 57.8125 -62.34375 L 57.8125 -95.921875 L 79.984375 -95.921875 L 79.984375 0 L 57.8125 0 L 57.8125 -10.375 C 55.738281 -6.914062 52.78125 -4.148438 48.9375 -2.078125 C 45.09375 -0.00390625 40.617188 1.03125 35.515625 1.03125 C 29.554688 1.03125 24.15625 -0.5 19.3125 -3.5625 C 14.476562 -6.632812 10.65625 -11 7.84375 -16.65625 C 5.03125 -22.3125 3.625 -28.859375 3.625 -36.296875 Z M 57.8125 -36.171875 C 57.8125 -41.703125 56.273438 -46.0625 53.203125 -49.25 C 50.140625 -52.445312 46.40625 -54.046875 42 -54.046875 C 37.59375 -54.046875 33.851562 -52.46875 30.78125 -49.3125 C 27.71875 -46.164062 26.1875 -41.828125 26.1875 -36.296875 C 26.1875 -30.765625 27.71875 -26.378906 30.78125 -23.140625 C 33.851562 -19.898438 37.59375 -18.28125 42 -18.28125 C 46.40625 -18.28125 50.140625 -19.878906 53.203125 -23.078125 C 56.273438 -26.273438 57.8125 -30.640625 57.8125 -36.171875 Z M 57.8125 -36.171875 "/></g></g></g><g fill="#7b7b7b" fill-opacity="1"><g transform="translate(987.228941, 583.586841)"><g><path d="M 100.328125 -73.109375 C 109.316406 -73.109375 116.46875 -70.382812 121.78125 -64.9375 C 127.09375 -59.5 129.75 -51.9375 129.75 -42.25 L 129.75 0 L 107.71875 0 L 107.71875 -39.28125 C 107.71875 -43.945312 106.484375 -47.550781 104.015625 -50.09375 C 101.554688 -52.644531 98.164062 -53.921875 93.84375 -53.921875 C 89.53125 -53.921875 86.140625 -52.644531 83.671875 -50.09375 C 81.210938 -47.550781 79.984375 -43.945312 79.984375 -39.28125 L 79.984375 0 L 57.9375 0 L 57.9375 -39.28125 C 57.9375 -43.945312 56.703125 -47.550781 54.234375 -50.09375 C 51.773438 -52.644531 48.390625 -53.921875 44.078125 -53.921875 C 39.753906 -53.921875 36.359375 -52.644531 33.890625 -50.09375 C 31.429688 -47.550781 30.203125 -43.945312 30.203125 -39.28125 L 30.203125 0 L 8.03125 0 L 8.03125 -72.328125 L 30.203125 -72.328125 L 30.203125 -63.25 C 32.453125 -66.28125 35.390625 -68.679688 39.015625 -70.453125 C 42.648438 -72.222656 46.753906 -73.109375 51.328125 -73.109375 C 56.773438 -73.109375 61.632812 -71.941406 65.90625 -69.609375 C 70.1875 -67.273438 73.535156 -63.945312 75.953125 -59.625 C 78.460938 -63.601562 81.878906 -66.84375 86.203125 -69.34375 C 90.523438 -71.851562 95.234375 -73.109375 100.328125 -73.109375 Z M 100.328125 -73.109375 "/></g></g></g><g fill="#7b7b7b" fill-opacity="1"><g transform="translate(1182.823303, 583.586841)"><g><path d="M 19.1875 -79.84375 C 15.289062 -79.84375 12.113281 -80.988281 9.65625 -83.28125 C 7.195312 -85.570312 5.96875 -88.40625 5.96875 -91.78125 C 5.96875 -95.226562 7.195312 -98.097656 9.65625 -100.390625 C 12.113281 -102.679688 15.289062 -103.828125 19.1875 -103.828125 C 22.988281 -103.828125 26.117188 -102.679688 28.578125 -100.390625 C 31.046875 -98.097656 32.28125 -95.226562 32.28125 -91.78125 C 32.28125 -88.40625 31.046875 -85.570312 28.578125 -83.28125 C 26.117188 -80.988281 22.988281 -79.84375 19.1875 -79.84375 Z M 30.203125 -72.328125 L 30.203125 0 L 8.03125 0 L 8.03125 -72.328125 Z M 30.203125 -72.328125 "/></g></g></g><g fill="#7b7b7b" fill-opacity="1"><g transform="translate(1279.391782, 583.586841)"><g><path d="M 52.109375 -73.109375 C 60.578125 -73.109375 67.335938 -70.363281 72.390625 -64.875 C 77.453125 -59.382812 79.984375 -51.84375 79.984375 -42.25 L 79.984375 0 L 57.9375 0 L 57.9375 -39.28125 C 57.9375 -44.113281 56.679688 -47.867188 54.171875 -50.546875 C 51.671875 -53.234375 48.304688 -54.578125 44.078125 -54.578125 C 39.835938 -54.578125 36.460938 -53.234375 33.953125 -50.546875 C 31.453125 -47.867188 30.203125 -44.113281 30.203125 -39.28125 L 30.203125 0 L 8.03125 0 L 8.03125 -72.328125 L 30.203125 -72.328125 L 30.203125 -62.734375 C 32.453125 -65.929688 35.476562 -68.457031 39.28125 -70.3125 C 43.082031 -72.175781 47.359375 -73.109375 52.109375 -73.109375 Z M 52.109375 -73.109375 "/></g></g></g><g fill="#7b7b7b" fill-opacity="1"><g transform="translate(1425.084378, 583.586841)"><g/></g></g><g fill="#7b7b7b" fill-opacity="1"><g transform="translate(1510.894793, 583.586841)"><g><path d="M 77.390625 -61.703125 C 77.390625 -56.429688 76.175781 -51.613281 73.75 -47.25 C 71.332031 -42.882812 67.617188 -39.363281 62.609375 -36.6875 C 57.597656 -34.007812 51.375 -32.671875 43.9375 -32.671875 L 30.203125 -32.671875 L 30.203125 0 L 8.03125 0 L 8.03125 -91 L 43.9375 -91 C 51.195312 -91 57.332031 -89.742188 62.34375 -87.234375 C 67.363281 -84.734375 71.125 -81.273438 73.625 -76.859375 C 76.132812 -72.453125 77.390625 -67.398438 77.390625 -61.703125 Z M 42.25 -50.296875 C 46.488281 -50.296875 49.644531 -51.285156 51.71875 -53.265625 C 53.789062 -55.253906 54.828125 -58.066406 54.828125 -61.703125 C 54.828125 -65.328125 53.789062 -68.132812 51.71875 -70.125 C 49.644531 -72.113281 46.488281 -73.109375 42.25 -73.109375 L 30.203125 -73.109375 L 30.203125 -50.296875 Z M 42.25 -50.296875 "/></g></g></g><g fill="#7b7b7b" fill-opacity="1"><g transform="translate(1650.106562, 583.586841)"><g><path d="M 3.625 -36.296875 C 3.625 -43.722656 5.03125 -50.242188 7.84375 -55.859375 C 10.65625 -61.484375 14.476562 -65.804688 19.3125 -68.828125 C 24.15625 -71.859375 29.554688 -73.375 35.515625 -73.375 C 40.617188 -73.375 45.09375 -72.332031 48.9375 -70.25 C 52.78125 -68.175781 55.738281 -65.457031 57.8125 -62.09375 L 57.8125 -72.328125 L 79.984375 -72.328125 L 79.984375 0 L 57.8125 0 L 57.8125 -10.234375 C 55.65625 -6.867188 52.648438 -4.148438 48.796875 -2.078125 C 44.953125 -0.00390625 40.484375 1.03125 35.390625 1.03125 C 29.515625 1.03125 24.15625 -0.5 19.3125 -3.5625 C 14.476562 -6.632812 10.65625 -11 7.84375 -16.65625 C 5.03125 -22.3125 3.625 -28.859375 3.625 -36.296875 Z M 57.8125 -36.171875 C 57.8125 -41.703125 56.273438 -46.0625 53.203125 -49.25 C 50.140625 -52.445312 46.40625 -54.046875 42 -54.046875 C 37.59375 -54.046875 33.851562 -52.46875 30.78125 -49.3125 C 27.71875 -46.164062 26.1875 -41.828125 26.1875 -36.296875 C 26.1875 -30.765625 27.71875 -26.378906 30.78125 -23.140625 C 33.851562 -19.898438 37.59375 -18.28125 42 -18.28125 C 46.40625 -18.28125 50.140625 -19.878906 53.203125 -23.078125 C 56.273438 -26.273438 57.8125 -30.640625 57.8125 -36.171875 Z M 57.8125 -36.171875 "/></g></g></g><g fill="#7b7b7b" fill-opacity="1"><g transform="translate(1796.447295, 583.586841)"><g><path d="M 52.109375 -73.109375 C 60.578125 -73.109375 67.335938 -70.363281 72.390625 -64.875 C 77.453125 -59.382812 79.984375 -51.84375 79.984375 -42.25 L 79.984375 0 L 57.9375 0 L 57.9375 -39.28125 C 57.9375 -44.113281 56.679688 -47.867188 54.171875 -50.546875 C 51.671875 -53.234375 48.304688 -54.578125 44.078125 -54.578125 C 39.835938 -54.578125 36.460938 -53.234375 33.953125 -50.546875 C 31.453125 -47.867188 30.203125 -44.113281 30.203125 -39.28125 L 30.203125 0 L 8.03125 0 L 8.03125 -72.328125 L 30.203125 -72.328125 L 30.203125 -62.734375 C 32.453125 -65.929688 35.476562 -68.457031 39.28125 -70.3125 C 43.082031 -72.175781 47.359375 -73.109375 52.109375 -73.109375 Z M 52.109375 -73.109375 "/></g></g></g><g fill="#7b7b7b" fill-opacity="1"><g transform="translate(1942.139794, 583.586841)"><g><path d="M 76.21875 -37.328125 C 76.21875 -35.253906 76.085938 -33.09375 75.828125 -30.84375 L 25.671875 -30.84375 C 26.015625 -26.351562 27.457031 -22.921875 30 -20.546875 C 32.550781 -18.171875 35.6875 -16.984375 39.40625 -16.984375 C 44.9375 -16.984375 48.78125 -19.316406 50.9375 -23.984375 L 74.53125 -23.984375 C 73.320312 -19.222656 71.140625 -14.941406 67.984375 -11.140625 C 64.828125 -7.335938 60.875 -4.359375 56.125 -2.203125 C 51.375 -0.046875 46.0625 1.03125 40.1875 1.03125 C 33.09375 1.03125 26.78125 -0.476562 21.25 -3.5 C 15.726562 -6.519531 11.410156 -10.835938 8.296875 -16.453125 C 5.179688 -22.078125 3.625 -28.648438 3.625 -36.171875 C 3.625 -43.679688 5.15625 -50.242188 8.21875 -55.859375 C 11.289062 -61.484375 15.59375 -65.804688 21.125 -68.828125 C 26.65625 -71.859375 33.007812 -73.375 40.1875 -73.375 C 47.1875 -73.375 53.40625 -71.898438 58.84375 -68.953125 C 64.289062 -66.015625 68.546875 -61.820312 71.609375 -56.375 C 74.679688 -50.9375 76.21875 -44.585938 76.21875 -37.328125 Z M 53.53125 -43.171875 C 53.53125 -46.972656 52.234375 -49.992188 49.640625 -52.234375 C 47.046875 -54.484375 43.804688 -55.609375 39.921875 -55.609375 C 36.203125 -55.609375 33.066406 -54.523438 30.515625 -52.359375 C 27.972656 -50.203125 26.398438 -47.140625 25.796875 -43.171875 Z M 53.53125 -43.171875 "/></g></g></g><g fill="#7b7b7b" fill-opacity="1"><g transform="translate(2080.314781, 583.586841)"><g><path d="M 30.203125 -95.921875 L 30.203125 0 L 8.03125 0 L 8.03125 -95.921875 Z M 30.203125 -95.921875 "/></g></g></g></g></g></g></svg>