<svg xmlns="http://www.w3.org/2000/svg" xmlns:xlink="http://www.w3.org/1999/xlink" width="2000" zoomAndPan="magnify" viewBox="0 0 1500 1499.999933" height="2000" preserveAspectRatio="xMidYMid meet" version="1.0"><path fill="#1b7895" d="M 150 1350 C 108.75 1350 73.4375 1335.316406 44.0625 1305.9375 C 14.6875 1276.558594 0 1241.25 0 1200 L 0 300 C 0 258.75 14.6875 223.4375 44.0625 194.0625 C 73.4375 164.6875 108.75 150 150 150 L 1350 150 C 1391.25 150 1426.558594 164.6875 1455.9375 194.0625 C 1485.316406 223.4375 1500 258.75 1500 300 L 1500 1200 C 1500 1241.25 1485.316406 1276.558594 1455.9375 1305.9375 C 1426.558594 1335.316406 1391.25 1350 1350 1350 Z M 750 825 L 150 450 L 150 1200 L 1350 1200 L 1350 450 Z M 750 675 L 1350 300 L 150 300 Z M 150 450 L 150 300 L 150 1200 Z M 150 450 " fill-opacity="1" fill-rule="nonzero"/></svg>