<svg xmlns="http://www.w3.org/2000/svg" xmlns:xlink="http://www.w3.org/1999/xlink" width="2000" zoomAndPan="magnify" viewBox="0 0 1500 1499.999933" height="2000" preserveAspectRatio="xMidYMid meet" version="1.0"><path fill="#1b7895" d="M 750 750 C 791.25 750 826.5625 735.3125 855.9375 705.9375 C 885.3125 676.5625 900 641.25 900 600 C 900 558.75 885.3125 523.4375 855.9375 494.0625 C 826.5625 464.6875 791.25 450 750 450 C 708.75 450 673.4375 464.6875 644.0625 494.0625 C 614.6875 523.4375 600 558.75 600 600 C 600 641.25 614.6875 676.5625 644.0625 705.9375 C 673.4375 735.3125 708.75 750 750 750 Z M 750 1301.25 C 902.496094 1161.246094 1015.628906 1034.0625 1089.375 919.6875 C 1163.121094 805.3125 1200 703.75 1200 615 C 1200 478.75 1156.558594 367.1875 1069.6875 280.3125 C 982.816406 193.4375 876.25 150 750 150 C 623.75 150 517.1875 193.4375 430.3125 280.3125 C 343.4375 367.1875 300 478.75 300 615 C 300 703.75 336.875 805.3125 410.625 919.6875 C 484.375 1034.0625 597.5 1161.246094 750 1301.25 Z M 750 1500 C 548.75 1328.753906 398.4375 1169.683594 299.0625 1022.8125 C 199.6875 875.941406 150 740 150 615 C 150 427.5 210.3125 278.125 330.9375 166.875 C 451.5625 55.625 591.25 0 750 0 C 908.753906 0 1048.441406 55.625 1169.0625 166.875 C 1289.683594 278.125 1350 427.5 1350 615 C 1350 740 1300.3125 875.941406 1200.9375 1022.8125 C 1101.5625 1169.683594 951.246094 1328.753906 750 1500 Z M 750 1500 " fill-opacity="1" fill-rule="nonzero"/></svg>