<?xml version="1.0" encoding="iso-8859-1"?>
<!-- Uploaded to: SVG Repo, www.svgrepo.com, Generator: SVG Repo Mixer Tools -->
<svg fill="#6b7280" height="800px" width="800px" version="1.1" id="Layer_1" xmlns="http://www.w3.org/2000/svg" xmlns:xlink="http://www.w3.org/1999/xlink" 
	 viewBox="0 0 512 512" xml:space="preserve">
<g>
	<g>
		<path d="M272.72,89.236L312.9,15.057c1.712-3.161,1.634-6.99-0.205-10.077C310.854,1.892,307.526,0,303.931,0h-95.862
			c-3.594,0-6.923,1.892-8.762,4.98c-1.84,3.087-1.917,6.916-0.206,10.077l40.181,74.179c-96.423,8.492-172.3,89.681-172.3,188.271
			v183.43c0,28.156,22.906,51.063,51.063,51.063h275.912c28.156,0,51.062-22.907,51.062-51.063v-183.43
			C445.019,178.916,369.142,97.728,272.72,89.236z M225.193,20.398h61.614L256,77.273L225.193,20.398z M424.621,460.937h-0.001
			c0,16.909-13.756,30.665-30.664,30.665H118.045c-16.909,0-30.665-13.756-30.665-30.665v-183.43
			c0-92.978,75.643-168.62,168.621-168.62s168.62,75.642,168.62,168.62V460.937z"/>
	</g>
</g>
<g>
	<g>
		<path d="M263.941,293.807v-69.279c20.951,1.118,29.332,10.336,34.36,10.336s8.1-6.704,8.1-10.336
			c0-9.218-22.348-16.202-42.461-17.041v-8.1c0-2.794-3.352-5.308-6.425-5.308c-3.632,0-6.424,2.514-6.424,5.308v8.659
			c-24.304,1.677-50.842,12.851-50.842,48.048c0,35.757,26.26,44.137,50.842,52.798v81.291c-34.64-0.837-40.786-22.906-47.49-22.906
			c-4.19,0-8.381,5.866-8.381,10.336c0,10.056,20.672,29.891,55.87,30.17v10.055c0,2.794,2.794,5.308,6.424,5.308
			c3.073,0,6.425-2.514,6.425-5.308v-10.895c27.936-3.632,47.491-20.951,47.491-54.753
			C311.432,313.921,287.128,302.188,263.941,293.807z M251.65,289.618c-18.158-6.424-33.801-13.408-33.801-35.198
			c0-20.672,16.202-28.214,33.801-29.61V289.618z M263.104,389.626v-76.263c16.761,6.984,30.449,16.202,30.449,40.506
			C293.553,374.541,282.658,386.553,263.104,389.626z"/>
	</g>
</g>
<g>
	<g>
		<path d="M400.829,364.112c-5.632,0-10.199,4.567-10.199,10.199v86.693c0,5.632,4.567,10.199,10.199,10.199
			c5.632,0,10.199-4.567,10.199-10.199v-86.693C411.028,368.679,406.461,364.112,400.829,364.112z"/>
	</g>
</g>
<g>
	<g>
		<path d="M400.829,323.315c-5.632,0-10.199,4.567-10.199,10.199v6.12c0,5.632,4.567,10.199,10.199,10.199
			c5.632,0,10.199-4.567,10.199-10.199v-6.12C411.028,327.882,406.461,323.315,400.829,323.315z"/>
	</g>
</g>
</svg>