<svg xmlns="http://www.w3.org/2000/svg" xmlns:xlink="http://www.w3.org/1999/xlink" width="2000" zoomAndPan="magnify" viewBox="0 0 1500 1499.999933" height="2000" preserveAspectRatio="xMidYMid meet" version="1.0"><path fill="#1b7895" d="M 1412.5 1500 C 1238.890625 1500 1067.359375 1462.148438 897.917969 1386.457031 C 728.472656 1310.765625 574.304688 1203.476562 435.417969 1064.582031 C 296.527344 925.691406 189.234375 771.527344 113.542969 602.082031 C 37.847656 432.640625 0 261.109375 0 87.5 C 0 62.5 8.332031 41.667969 25 25 C 41.667969 8.332031 62.5 0 87.5 0 L 425 0 C 444.445312 0 461.804688 6.597656 477.082031 19.792969 C 492.359375 32.984375 501.390625 48.609375 504.167969 66.667969 L 558.332031 358.332031 C 561.109375 380.554688 560.417969 399.304688 556.25 414.582031 C 552.082031 429.859375 544.445312 443.054688 533.332031 454.167969 L 331.25 658.332031 C 359.027344 709.722656 392.015625 759.375 430.207031 807.292969 C 468.402344 855.207031 510.417969 901.390625 556.25 945.832031 C 599.304688 988.890625 644.445312 1028.816406 691.667969 1065.625 C 738.890625 1102.433594 788.890625 1136.109375 841.667969 1166.667969 L 1037.5 970.832031 C 1050 958.332031 1066.316406 948.957031 1086.457031 942.707031 C 1106.601562 936.457031 1126.390625 934.726562 1145.832031 937.5 L 1433.332031 995.832031 C 1452.773438 1001.390625 1468.75 1011.457031 1481.25 1026.042969 C 1493.75 1040.625 1500 1056.941406 1500 1075 L 1500 1412.5 C 1500 1437.5 1491.667969 1458.332031 1475 1475 C 1458.332031 1491.667969 1437.5 1500 1412.5 1500 Z M 252.082031 500 L 389.582031 362.5 L 354.167969 166.667969 L 168.75 166.667969 C 175.695312 223.609375 185.417969 279.859375 197.917969 335.417969 C 210.417969 390.972656 228.472656 445.832031 252.082031 500 Z M 997.917969 1245.832031 C 1052.082031 1269.441406 1107.292969 1288.191406 1163.542969 1302.082031 C 1219.792969 1315.976562 1276.390625 1325 1333.332031 1329.167969 L 1333.332031 1145.832031 L 1137.5 1106.25 Z M 997.917969 1245.832031 " fill-opacity="1" fill-rule="nonzero"/></svg>